
<svg xmlns="http://www.w3.org/2000/svg" viewBox="0 0 100 147.49">
  <polygon points="10.28 67.35 18.43 17.8 29.52 2.63 35.27 21.41 27.16 71.03 10.28 67.35"/>
  <polygon points="26.43 74.32 17.22 126.82 5.74 144.4 0 126.82 9.56 70.63 26.43 74.32"/>
  <polygon points="31.59 64.95 71.52 64.95 68.72 80.86 28.82 80.86 31.59 64.95"/>
  <polygon points="89.55 82.38 81.56 129.23 70.48 144.4 64.73 125.61 72.68 78.7 89.55 82.38"/>
  <polygon points="73.4 75.41 82.64 21.01 94.26 2.63 100 20.21 90.28 79.1 73.4 75.41"/>
  <polygon points="19.86 128.5 62.34 128.5 68.09 147.49 8.07 147.49 19.86 128.5"/>
  <polygon points="80.28 18.99 37.8 18.99 32.04 0 92.07 0 80.28 18.99"/>
</svg>